<?xml version="1.0" encoding="utf-8"?>
<!-- Generator: Adobe Illustrator 16.0.0, SVG Export Plug-In . SVG Version: 6.00 Build 0)  -->
<!DOCTYPE svg PUBLIC "-//W3C//DTD SVG 1.1//EN" "http://www.w3.org/Graphics/SVG/1.1/DTD/svg11.dtd">
<svg version="1.1"
	 id="logo" sodipodi:docname="logo.svg" inkscape:version="0.48.1 r9760" xmlns:dc="http://purl.org/dc/elements/1.1/" xmlns:cc="http://creativecommons.org/ns#" xmlns:rdf="http://www.w3.org/1999/02/22-rdf-syntax-ns#" xmlns:svg="http://www.w3.org/2000/svg" xmlns:sodipodi="http://sodipodi.sourceforge.net/DTD/sodipodi-0.dtd" xmlns:inkscape="http://www.inkscape.org/namespaces/inkscape"
	 xmlns="http://www.w3.org/2000/svg" xmlns:xlink="http://www.w3.org/1999/xlink" x="0px" y="0px" width="271px" height="110px"
	 viewBox="0 0 271 110" enable-background="new 0 0 271 110" xml:space="preserve">
<sodipodi:namedview  id="namedview5" inkscape:current-layer="layer4" inkscape:window-y="0" inkscape:window-x="0" inkscape:window-height="731" inkscape:window-width="1024" inkscape:pageshadow="2" inkscape:pageopacity="0" inkscape:window-maximized="1" bordercolor="#666666" showgrid="false" pagecolor="#ffffff" guidetolerance="10" inkscape:cy="63.92784" gridtolerance="10" inkscape:cx="97.00774" objecttolerance="10" borderopacity="1" inkscape:zoom="4">
	</sodipodi:namedview>
<g id="layer3" sodipodi:insensitive="true" inkscape:groupmode="layer" inkscape:label="Cloud">
	
		<path id="cloud_outline" sodipodi:nodetypes="aaccccccsccccccccaaaaaaaaaaaaaaaaaaaaccacca" inkscape:connector-curvature="0" stroke="#FFFFFF" d="
		M111.278,91.623C95.07,91.784,80.007,82.215,63.854,80.88c-7.032-0.581-13.751,0.565-21.131,1.226c9.4-6.18,11.29-5.41,16.8-6.4
		c-18.67-10.256-24.183,8.361-46.8-1.6c9.73-0.779,13.97,0.961,20.4-5.8c-4.33,1.8-13.36,3.03-18.4-3.2
		c14.121,3.59,18.426-6.26,32-5.8c-1.769-3.13-4.26-4.222-8-4.15c-7.7,0.148-26.59,8.42-36-2.05
		c21.322,4.335,29.987-9.375,48.222-7.256c3.048,0.382,9.167,3.395,10.494,0.158c-1.434-3.92-9.518-3.956-12.183-3.734
		c-7.738,0.705-18.472,3.676-28.947-2.479c7.34,1.12,15.179,0.663,21.414-1.697c11.716-9.136,18.523-5.776,22.271-7.72
		c-6.145-5.27-13.806-2.642-20.766,0.133c4.44-5.23,8.995-6.583,14.295-7.615c5.955-1.158,12.041,2.244,18.098,1.91
		c6.653-0.367,12.905-3.523,19.526-4.272c6.064-0.686,12.265,0.676,18.308-0.182c5.671-0.804,10.857-3.997,16.552-4.616
		c6.269-0.681,12.637,1.88,18.889,1.05c6.612-0.878,12.342-5.873,19-6.289c8.215-0.514,16.012,4.267,24.228,4.778
		c4.178,0.26,8.349-1.137,12.526-0.883c7.051,0.43,13.822,2.972,20.805,4.046c6.775,1.042,13.849,0.419,20.436,2.32
		c6.189,1.786,13.6,3.194,17.414,8.387c3.58,4.876,2.082,11.934,2.619,17.96c0.516,5.772,1.807,11.711,0.579,17.374
		c-1.191,5.494-3.685,10.974-7.491,15.108c-3.768,4.092-8.957,7.029-14.287,8.617c-5.435,1.62-11.406-0.303-17,0.621
		c-4.592,0.758-8.74,3.573-13.375,4.002c-8.949,0.83-17.846-3.484-26.811-2.854c-5.381,0.378-10.342,3.266-15.693,3.947
		c-4.327,0.55-4.815,0.604-13.087,0.087c3.077-0.599,12.427-1.917,12.36-6.134c-3.618-4.933-17.043,2.025-25.595,1.841
		c-4.81-0.104-13.718-0.505-14.336-1.653c9.056-0.957,12.626-1.297,18.536-5.957C133.154,74.883,124.479,91.492,111.278,91.623z"/>
</g>
<g id="layer5" sodipodi:insensitive="true" inkscape:groupmode="layer" inkscape:label="Overlays">
	<path id="path3867" sodipodi:nodetypes="csaacccc" inkscape:connector-curvature="0" stroke="#000000" stroke-width="0.9233" d="
		M108.64,72.107c0,0,1.701-2.392,4.233-3.531c2.031-0.913,3.553-1.635,5.431-2.145c1.719-0.465,3.506-0.729,5.281-0.816
		c6.992-0.348,7.645,2.061,20.971,1.146c-0.145,3.697-0.069,5.347-0.069,5.347C134.999,72.107,118.129,72.107,108.64,72.107
		L108.64,72.107z"/>
	<path id="path3869" sodipodi:nodetypes="ccaccc" inkscape:connector-curvature="0" stroke="#000000" stroke-width="0.7464" d="
		M154.375,70.809v-5.088c1.791-0.426,3.957-0.643,5.946-0.873c2.28-0.264,6.862-0.58,6.862-0.58l0.125,6.471L154.375,70.809z"/>
</g>
<text transform="matrix(0.9994 -0.0339 0.0339 0.9994 94.478 70.4473)" fill="#FFFFFF" font-family="'CTCuHeiSJ'" font-size="46.9558">ILSEC</text>
</svg>
